<svg width="200" height="80" viewBox="0 0 200 80" fill="none" xmlns="http://www.w3.org/2000/svg">
<path d="M177.657 78.0128L198.325 42.5173C199.051 41.2708 199.05 39.7301 198.321 38.485L187.443 19.8864C185.901 17.2495 182.091 17.2448 180.542 19.8778L175.184 28.988C174.452 30.2312 174.447 31.7719 175.17 33.0202L178.336 38.4901C179.056 39.7329 179.054 41.266 178.331 42.507L160.001 73.9872C158.448 76.6539 160.372 80 163.458 80H174.2C175.624 80 176.941 79.2432 177.657 78.0128Z" fill="#27272A"/>
<path d="M122.952 80H134.685C136.117 80 137.44 79.2342 138.153 77.9921L178.347 8.00771C179.06 6.76576 179.055 5.23723 178.333 4.00011L177.158 1.98452C176.441 0.755646 175.125 0 173.703 0H164.802C163.377 0 162.059 0.757988 161.343 1.98989L119.493 73.9899C117.943 76.6565 119.867 80 122.952 80Z" fill="#27272A"/>
<path d="M63.9516 80H77H94.2152C95.631 80 96.9414 79.2515 97.6606 78.0319L104.443 66.5319C106.015 63.8654 104.093 60.5 100.997 60.5H94.9456C91.8625 60.5 89.9385 57.1591 91.4858 54.4925L110.344 21.9925C111.06 20.7591 112.378 20 113.804 20H129.186C130.617 20 131.94 19.2349 132.654 17.9939L139.554 5.99389C141.087 3.32722 139.162 0 136.086 0H123H105.802C104.377 0 103.059 0.757988 102.343 1.98989L60.4934 73.9899C58.9434 76.6565 60.8672 80 63.9516 80Z" fill="#27272A"/>
<path d="M76.0859 0H65.8041C64.3779 0 63.0596 0.759393 62.344 1.99312L21.184 72.9587C20.4535 74.2181 20.465 75.775 21.2141 77.0235L21.8348 78.058C22.5577 79.2628 23.8597 80 25.2648 80H34.6859C36.1175 80 37.4399 79.2349 38.1535 77.9939L79.5535 5.99388C81.0868 3.32722 79.162 0 76.0859 0Z" fill="#27272A"/>
<path d="M21.8465 2.00612L1.1484 38.0028C0.437539 39.2391 0.438637 40.7603 1.15128 41.9956L11.5688 60.0526C13.1006 62.7078 16.9271 62.7239 18.4813 60.0818L23.8404 50.9713C24.5589 49.7499 24.5775 48.2395 23.8893 47.0007L21.0859 41.9547C20.4111 40.74 20.415 39.2622 21.0963 38.0511L39.1469 5.96104C40.6468 3.29463 38.7199 0 35.6606 0H25.3141C23.8825 0 22.5601 0.765067 21.8465 2.00612Z" fill="#27272A"/>
</svg>
