<svg width="200" height="172" viewBox="0 0 200 172" fill="none" xmlns="http://www.w3.org/2000/svg">
<path d="M176.5 126L199.5 86.5L184 60L174 77L179.5 86.5L156.5 126H176.5Z" fill="#2EC0FF"/>
<path d="M116 126L137 126L179.5 52L176 46H162.5L116 126Z" fill="#2EC0FF"/>
<path d="M57 126H77H96.5L108 106.5H88L111.5 66H131.5L143 46H123H103.5L57 126Z" fill="#2EC0FF"/>
<path d="M83 46H63.5L20 121L23 126H37L83 46Z" fill="#2EC0FF"/>
<path d="M23 46L0 86L15 112L25 95L20 86L42.5 46H23Z" fill="#2EC0FF"/>
</svg>
